<svg width="79" height="40" viewBox="0 0 79 40" fill="none" xmlns="http://www.w3.org/2000/svg">
<path d="M31.0373 6.31397C31.0373 2.82541 28.2128 0.015625 24.7414 0.015625H20.1182V3.64625H24.7414C26.2089 3.64625 27.4081 4.84593 27.4081 6.31397V14.5855H20.1339V18.2319H38.343V14.5697H31.0689V6.31397H31.0373Z" fill="#3D5DA9"/>
<path d="M71.6213 14.5697V6.31397C71.6213 2.82541 68.7968 0.015625 65.3254 0.015625H60.7021V3.64625H65.3254C66.7929 3.64625 67.9921 4.84593 67.9921 6.31397V14.5855H60.7179V18.2319H78.927V14.5697H71.6213Z" fill="#3D5DA9"/>
<path d="M48.6631 18.2163H57.7677V7.29282H48.6631V10.9392H54.1227V14.5856H48.6631C45.6493 14.5856 43.2036 12.1389 43.2036 9.12392C43.2036 6.10892 45.6493 3.64641 48.6631 3.64641H57.7677V0H48.6631C43.6296 0 39.5586 4.07261 39.5586 9.10813C39.5586 14.1436 43.6296 18.2163 48.6631 18.2163Z" fill="#3D5DA9"/>
<path d="M75.6289 3.97796C76.623 3.97796 77.4277 3.17291 77.4277 2.17843C77.4277 1.18396 76.623 0.378906 75.6289 0.378906C74.6348 0.378906 73.8301 1.18396 73.8301 2.17843C73.8301 3.17291 74.6348 3.97796 75.6289 3.97796ZM75.6289 0.726183C76.4336 0.726183 77.0806 1.37338 77.0806 2.17843C77.0806 2.98348 76.4336 3.63068 75.6289 3.63068C74.8242 3.63068 74.1772 2.98348 74.1772 2.17843C74.1772 1.37338 74.8242 0.726183 75.6289 0.726183Z" fill="#3D5DA9"/>
<path d="M75.6451 3.14081C75.8029 3.14081 75.9607 3.10924 76.0869 3.0461C76.1974 2.99875 76.3236 2.90403 76.4499 2.77775L76.2132 2.52519C76.1185 2.6199 76.0396 2.68304 75.9607 2.71461C75.866 2.76197 75.7714 2.77775 75.6609 2.77775C75.5347 2.77775 75.44 2.74618 75.3453 2.69882C75.1402 2.58833 75.0455 2.3989 75.0455 2.14634C75.0455 1.9727 75.1086 1.81485 75.2191 1.70435C75.3453 1.57807 75.4873 1.53071 75.6609 1.53071C75.866 1.53071 76.0554 1.62542 76.2132 1.79906L76.4499 1.56228C76.2447 1.30972 75.9765 1.19922 75.6451 1.19922C75.4716 1.19922 75.298 1.24657 75.156 1.3255C74.8404 1.49914 74.6826 1.78328 74.6826 2.16212C74.6826 2.44626 74.7773 2.68304 74.9509 2.85668C75.1244 3.0461 75.3611 3.14081 75.6451 3.14081Z" fill="#3D5DA9"/>
<path d="M18.2089 9.10813C18.2089 4.07261 14.1379 0 9.10438 0H0.015625V3.64641H9.12016C12.134 3.64641 14.5797 6.09313 14.5797 9.10813C14.5797 12.1231 12.134 14.5699 9.12016 14.5699H3.6606V6.58248H0.015625V18.2163H9.12016C14.1379 18.2163 18.2089 14.1436 18.2089 9.10813Z" fill="#3D5DA9"/>
<path d="M67.9766 30.1182C67.9766 31.1285 68.7971 31.9335 69.7912 31.9335H78.8957V28.2871H69.7912C68.7971 28.3029 67.9766 29.1079 67.9766 30.1182Z" fill="#FFCD0C"/>
<path d="M60.7021 30.1189C60.7021 35.1544 64.7732 39.227 69.8067 39.227H78.9112V35.5806H69.8067C66.7929 35.5806 64.3471 33.1339 64.3471 30.1189C64.3471 27.1039 66.7929 24.6572 69.8067 24.6572H78.9112V21.0107H69.8067C64.7732 21.0107 60.7021 25.0991 60.7021 30.1189Z" fill="#FFCD0C"/>
<path d="M4.33936 22.3683L7.08492 25.0518C7.71608 24.7992 8.39458 24.6572 9.10464 24.6572L18.2092 24.6729V21.0107H9.10464C7.35316 21.0107 5.72792 21.5159 4.33936 22.3683Z" fill="#FFCD0C"/>
<path d="M3.64497 30.1187C3.64497 28.8875 4.05523 27.7509 4.73373 26.8512L2.1144 24.2939C0.788955 25.8725 0 27.9088 0 30.1345C0 35.17 4.07101 39.2426 9.10454 39.2426H18.2091H18.2564V35.5962H9.12032C6.09073 35.5804 3.64497 33.1337 3.64497 30.1187Z" fill="#FFCD0C"/>
<path d="M48.5049 21.7002H39.4004V25.3466H48.5049C51.5187 25.3466 53.9645 27.7933 53.9645 30.8083C53.9645 33.8233 51.5187 36.2701 48.5049 36.2701H43.0454V28.2827H39.4004V39.9165H48.5049C53.5385 39.9165 57.6095 35.8438 57.6095 30.8083C57.6095 25.7886 53.5227 21.7002 48.5049 21.7002Z" fill="#FFCD0C"/>
<path d="M28.6868 20.5996C27.677 20.5996 26.6987 20.7575 25.7677 21.0574C21.9334 22.2886 19.172 25.8719 19.1562 30.1182C19.1562 34.3486 21.9176 37.9477 25.7519 39.1789C26.6829 39.4789 27.6612 39.6367 28.6868 39.6367C31.8584 39.6367 34.6513 38.0897 36.387 35.7062C37.5231 34.1276 38.2016 32.2018 38.2016 30.1024C38.2016 28.0187 37.5389 26.0929 36.4028 24.5302C34.6671 22.1624 31.8584 20.5996 28.6868 20.5996ZM28.6868 36.0061C28.0557 36.0061 27.4561 35.9114 26.888 35.7219C24.5211 34.9643 22.817 32.7385 22.817 30.1182C22.817 27.4978 24.5369 25.2879 26.9038 24.5144C27.4718 24.3249 28.0714 24.2302 28.7026 24.2302C30.6592 24.2302 32.3949 25.1931 33.4679 26.677C34.1622 27.6399 34.5882 28.8238 34.5882 30.1182C34.5882 31.4126 34.178 32.5965 33.4679 33.5751C32.3634 35.059 30.6277 36.0061 28.6868 36.0061Z" fill="#FFCD0C"/>
</svg>
